{
  "accessors": [
    {
      "bufferView": 2,
      "componentType": 5126,
      "count": 34892,
      "max": [
        11.475854873657227,
        1.5764139890670776,
        11.520807266235352
      ],
      "min": [
        -11.475854873657227,
        -0.837094783782959,
        -11.775424003601074
      ],
      "type": "VEC3"
    },
    {
      "bufferView": 2,
      "byteOffset": 418704,
      "componentType": 5126,
      "count": 34892,
      "max": [
        0.9999696612358093,
        0.9999788403511047,
        0.9998605847358704
      ],
      "min": [
        -0.9999696612358093,
        -0.9999788403511047,
        -0.9998605847358704
      ],
      "type": "VEC3"
    },
    {
      "bufferView": 3,
      "componentType": 5126,
      "count": 34892,
      "max": [
        0.9803921580314636,
        0.9803921580314636,
        0.9960784316062927,
        1.0
      ],
      "min": [
        0.8784313797950745,
        0.8784313797950745,
        0.8901960849761963,
        0.0
      ],
      "type": "VEC4"
    },
    {
      "bufferView": 1,
      "componentType": 5126,
      "count": 34892,
      "max": [
        8.134834289550781,
        1.0
      ],
      "min": [
        0.0017735231667757034,
        0.0
      ],
      "type": "VEC2"
    },
    {
      "bufferView": 1,
      "byteOffset": 279136,
      "componentType": 5126,
      "count": 34892,
      "max": [
        8.134834289550781,
        1.0
      ],
      "min": [
        0.0017735231667757034,
        0.0
      ],
      "type": "VEC2"
    },
    {
      "bufferView": 0,
      "componentType": 5125,
      "count": 99036,
      "type": "SCALAR"
    },
    {
      "bufferView": 2,
      "byteOffset": 837408,
      "componentType": 5126,
      "count": 24454,
      "max": [
        24.597623825073242,
        5.28778076171875,
        28.441272735595703
      ],
      "min": [
        -25.096403121948242,
        -5.562011241912842,
        -19.504413604736328
      ],
      "type": "VEC3"
    },
    {
      "bufferView": 2,
      "byteOffset": 1130856,
      "componentType": 5126,
      "count": 24454,
      "max": [
        0.9998320937156677,
        0.9999780058860779,
        0.9997527003288269
      ],
      "min": [
        -0.9999092221260071,
        -0.9999588131904602,
        -0.9991592764854431
      ],
      "type": "VEC3"
    },
    {
      "bufferView": 3,
      "byteOffset": 558272,
      "componentType": 5126,
      "count": 24454,
      "max": [
        0.9803921580314636,
        0.9803921580314636,
        0.9960784316062927,
        1.0
      ],
      "min": [
        0.1764705926179886,
        0.1764705926179886,
        0.1764705926179886,
        1.0
      ],
      "type": "VEC4"
    },
    {
      "bufferView": 1,
      "byteOffset": 558272,
      "componentType": 5126,
      "count": 24454,
      "max": [
        1.0,
        1.0
      ],
      "min": [
        0.0,
        0.0
      ],
      "type": "VEC2"
    },
    {
      "bufferView": 1,
      "byteOffset": 753904,
      "componentType": 5126,
      "count": 24454,
      "max": [
        1.0,
        1.0
      ],
      "min": [
        0.0,
        0.0
      ],
      "type": "VEC2"
    },
    {
      "bufferView": 0,
      "byteOffset": 396144,
      "componentType": 5125,
      "count": 55362,
      "type": "SCALAR"
    },
    {
      "bufferView": 2,
      "byteOffset": 1424304,
      "componentType": 5126,
      "count": 14088,
      "max": [
        25.158601760864258,
        10.54757022857666,
        29.33527183532715
      ],
      "min": [
        -26.794973373413086,
        -1.5720221996307373,
        -25.139299392700195
      ],
      "type": "VEC3"
    },
    {
      "bufferView": 2,
      "byteOffset": 1593360,
      "componentType": 5126,
      "count": 14088,
      "max": [
        0.9998801946640015,
        0.9998988509178162,
        0.9997200965881348
      ],
      "min": [
        -0.9997773170471191,
        -0.9883075952529907,
        -0.9999681115150452
      ],
      "type": "VEC3"
    },
    {
      "bufferView": 3,
      "byteOffset": 949536,
      "componentType": 5126,
      "count": 14088,
      "max": [
        0.9725490212440491,
        0.9725490212440491,
        0.9725490212440491,
        1.0
      ],
      "min": [
        0.5647059082984924,
        0.5647059082984924,
        0.5647059082984924,
        0.0
      ],
      "type": "VEC4"
    },
    {
      "bufferView": 1,
      "byteOffset": 949536,
      "componentType": 5126,
      "count": 14088,
      "max": [
        44.6701774597168,
        1.0
      ],
      "min": [
        0.0009614881128072739,
        0.0
      ],
      "type": "VEC2"
    },
    {
      "bufferView": 1,
      "byteOffset": 1062240,
      "componentType": 5126,
      "count": 14088,
      "max": [
        44.6701774597168,
        1.0
      ],
      "min": [
        0.0009614881128072739,
        0.0
      ],
      "type": "VEC2"
    },
    {
      "bufferView": 0,
      "byteOffset": 617592,
      "componentType": 5125,
      "count": 39360,
      "type": "SCALAR"
    },
    {
      "bufferView": 2,
      "byteOffset": 1762416,
      "componentType": 5126,
      "count": 15274,
      "max": [
        25.372098922729492,
        9.713530540466309,
        29.981231689453125
      ],
      "min": [
        -26.91560935974121,
        -3.2385470867156982,
        -25.317991256713867
      ],
      "type": "VEC3"
    },
    {
      "bufferView": 2,
      "byteOffset": 1945704,
      "componentType": 5126,
      "count": 15274,
      "max": [
        0.99996018409729,
        0.9917526245117188,
        0.9999198317527771
      ],
      "min": [
        -0.9999473690986633,
        -0.9998263716697693,
        -0.9995597004890442
      ],
      "type": "VEC3"
    },
    {
      "bufferView": 3,
      "byteOffset": 1174944,
      "componentType": 5126,
      "count": 15274,
      "max": [
        0.9725490212440491,
        0.9725490212440491,
        0.9882352948188782,
        1.0
      ],
      "min": [
        0.6745098233222961,
        0.6745098233222961,
        0.6784313917160034,
        0.0
      ],
      "type": "VEC4"
    },
    {
      "bufferView": 1,
      "byteOffset": 1174944,
      "componentType": 5126,
      "count": 15274,
      "max": [
        4.466401100158691,
        1.0
      ],
      "min": [
        0.0053545571863651276,
        0.0
      ],
      "type": "VEC2"
    },
    {
      "bufferView": 1,
      "byteOffset": 1297136,
      "componentType": 5126,
      "count": 15274,
      "max": [
        4.466401100158691,
        1.0
      ],
      "min": [
        0.0053545571863651276,
        0.0
      ],
      "type": "VEC2"
    },
    {
      "bufferView": 0,
      "byteOffset": 775032,
      "componentType": 5125,
      "count": 43170,
      "type": "SCALAR"
    },
    {
      "bufferView": 2,
      "byteOffset": 2128992,
      "componentType": 5126,
      "count": 5252,
      "max": [
        6.585595607757568,
        0.674663245677948,
        10.508723258972168
      ],
      "min": [
        -7.928863048553467,
        -0.7044002413749695,
        -11.676756858825684
      ],
      "type": "VEC3"
    },
    {
      "bufferView": 2,
      "byteOffset": 2192016,
      "componentType": 5126,
      "count": 5252,
      "max": [
        0.9942576289176941,
        0.9735997915267944,
        0.9969661235809326
      ],
      "min": [
        -0.9942576289176941,
        -0.9735997915267944,
        -0.9969661235809326
      ],
      "type": "VEC3"
    },
    {
      "bufferView": 3,
      "byteOffset": 1419328,
      "componentType": 5126,
      "count": 5252,
      "max": [
        0.9803921580314636,
        0.9803921580314636,
        0.9960784316062927,
        1.0
      ],
      "min": [
        0.38823530077934265,
        0.38823530077934265,
        0.3921568691730499,
        0.0
      ],
      "type": "VEC4"
    },
    {
      "bufferView": 1,
      "byteOffset": 1419328,
      "componentType": 5126,
      "count": 5252,
      "max": [
        59.91761779785156,
        1.0
      ],
      "min": [
        0.06525012105703354,
        0.0
      ],
      "type": "VEC2"
    },
    {
      "bufferView": 0,
      "byteOffset": 947712,
      "componentType": 5125,
      "count": 15336,
      "type": "SCALAR"
    },
    {
      "bufferView": 2,
      "byteOffset": 2255040,
      "componentType": 5126,
      "count": 45522,
      "max": [
        6.658555030822754,
        0.48733779788017273,
        10.380023002624512
      ],
      "min": [
        -8.04477310180664,
        -0.44114550948143005,
        -11.232939720153809
      ],
      "type": "VEC3"
    },
    {
      "bufferView": 2,
      "byteOffset": 2801304,
      "componentType": 5126,
      "count": 45522,
      "max": [
        0.9980764389038086,
        0.999939501285553,
        0.9992014169692993
      ],
      "min": [
        -0.9980764389038086,
        -0.999939501285553,
        -0.9992014169692993
      ],
      "type": "VEC3"
    },
    {
      "bufferView": 3,
      "byteOffset": 1503360,
      "componentType": 5126,
      "count": 45522,
      "max": [
        0.30588236451148987,
        0.30588236451148987,
        0.45098039507865906,
        1.0
      ],
      "min": [
        0.30588236451148987,
        0.30588236451148987,
        0.45098039507865906,
        1.0
      ],
      "type": "VEC4"
    },
    {
      "bufferView": 1,
      "byteOffset": 1461344,
      "componentType": 5126,
      "count": 45522,
      "max": [
        17.137813568115234,
        1.0
      ],
      "min": [
        -0.008946618996560574,
        0.0
      ],
      "type": "VEC2"
    },
    {
      "bufferView": 0,
      "byteOffset": 1009056,
      "componentType": 5125,
      "count": 239664,
      "type": "SCALAR"
    },
    {
      "bufferView": 2,
      "byteOffset": 3347568,
      "componentType": 5126,
      "count": 21716,
      "max": [
        9.567954063415527,
        3.3292930126190186,
        5.899912357330322
      ],
      "min": [
        -6.226658344268799,
        -0.519105851650238,
        -4.309289932250977
      ],
      "type": "VEC3"
    },
    {
      "bufferView": 2,
      "byteOffset": 3608160,
      "componentType": 5126,
      "count": 21716,
      "max": [
        0.9988582134246826,
        0.9999980926513672,
        0.9955329895019531
      ],
      "min": [
        -0.9988582134246826,
        -0.9999980926513672,
        -0.9955329895019531
      ],
      "type": "VEC3"
    },
    {
      "bufferView": 3,
      "byteOffset": 2231712,
      "componentType": 5126,
      "count": 21716,
      "max": [
        0.40784314274787903,
        0.4117647111415863,
        0.40784314274787903,
        1.0
      ],
      "min": [
        0.04313725605607033,
        0.04313725605607033,
        0.04313725605607033,
        0.0
      ],
      "type": "VEC4"
    },
    {
      "bufferView": 1,
      "byteOffset": 1825520,
      "componentType": 5126,
      "count": 21716,
      "max": [
        18.7497501373291,
        1.0
      ],
      "min": [
        0.008656015619635582,
        0.0
      ],
      "type": "VEC2"
    },
    {
      "bufferView": 1,
      "byteOffset": 1999248,
      "componentType": 5126,
      "count": 21716,
      "max": [
        18.7497501373291,
        1.0
      ],
      "min": [
        0.008656015619635582,
        0.0
      ],
      "type": "VEC2"
    },
    {
      "bufferView": 0,
      "byteOffset": 1967712,
      "componentType": 5125,
      "count": 58248,
      "type": "SCALAR"
    },
    {
      "bufferView": 2,
      "byteOffset": 3868752,
      "componentType": 5126,
      "count": 65532,
      "max": [
        13.48469066619873,
        4.185601234436035,
        13.315470695495605
      ],
      "min": [
        -13.930445671081543,
        -0.9770728945732117,
        -14.601775169372559
      ],
      "type": "VEC3"
    },
    {
      "bufferView": 2,
      "byteOffset": 4655136,
      "componentType": 5126,
      "count": 65532,
      "max": [
        0.9999778866767883,
        0.9999997019767761,
        0.9999985694885254
      ],
      "min": [
        -0.9999778866767883,
        -0.9999997019767761,
        -0.9999985694885254
      ],
      "type": "VEC3"
    },
    {
      "bufferView": 3,
      "byteOffset": 2579168,
      "componentType": 5126,
      "count": 65532,
      "max": [
        0.9176470637321472,
        0.9176470637321472,
        0.9215686321258545,
        1.0
      ],
      "min": [
        0.03529411926865578,
        0.03529411926865578,
        0.03529411926865578,
        1.0
      ],
      "type": "VEC4"
    },
    {
      "bufferView": 1,
      "byteOffset": 2172976,
      "componentType": 5126,
      "count": 65532,
      "max": [
        3.5417423248291016,
        1.0
      ],
      "min": [
        -0.024512702599167824,
        0.0
      ],
      "type": "VEC2"
    },
    {
      "bufferView": 0,
      "byteOffset": 2200704,
      "componentType": 5125,
      "count": 321414,
      "type": "SCALAR"
    },
    {
      "bufferView": 2,
      "byteOffset": 5441520,
      "componentType": 5126,
      "count": 65532,
      "max": [
        9.161202430725098,
        1.1282720565795898,
        12.285085678100586
      ],
      "min": [
        -10.601323127746582,
        -0.8431690335273743,
        -11.817462921142578
      ],
      "type": "VEC3"
    },
    {
      "bufferView": 2,
      "byteOffset": 6227904,
      "componentType": 5126,
      "count": 65532,
      "max": [
        0.9999706745147705,
        0.9999998807907104,
        0.9997807145118713
      ],
      "min": [
        -0.9999706745147705,
        -0.9999998807907104,
        -0.9997807145118713
      ],
      "type": "VEC3"
    },
    {
      "bufferView": 3,
      "byteOffset": 3627680,
      "componentType": 5126,
      "count": 65532,
      "max": [
        0.9176470637321472,
        0.9176470637321472,
        0.9215686321258545,
        1.0
      ],
      "min": [
        0.9176470637321472,
        0.9176470637321472,
        0.9215686321258545,
        1.0
      ],
      "type": "VEC4"
    },
    {
      "bufferView": 1,
      "byteOffset": 2697232,
      "componentType": 5126,
      "count": 65532,
      "max": [
        4.758396148681641,
        1.0
      ],
      "min": [
        -0.02856604941189289,
        0.0
      ],
      "type": "VEC2"
    },
    {
      "bufferView": 0,
      "byteOffset": 3486360,
      "componentType": 5125,
      "count": 335325,
      "type": "SCALAR"
    },
    {
      "bufferView": 2,
      "byteOffset": 7014288,
      "componentType": 5126,
      "count": 65532,
      "max": [
        8.04072093963623,
        0.8718282580375671,
        9.214531898498535
      ],
      "min": [
        -11.49428653717041,
        -0.8708414435386658,
        -11.806273460388184
      ],
      "type": "VEC3"
    },
    {
      "bufferView": 2,
      "byteOffset": 7800672,
      "componentType": 5126,
      "count": 65532,
      "max": [
        0.999701201915741,
        0.999983549118042,
        0.9998745322227478
      ],
      "min": [
        -0.999701201915741,
        -0.999983549118042,
        -0.9998745322227478
      ],
      "type": "VEC3"
    },
    {
      "bufferView": 3,
      "byteOffset": 4676192,
      "componentType": 5126,
      "count": 65532,
      "max": [
        0.9176470637321472,
        0.9176470637321472,
        0.9215686321258545,
        1.0
      ],
      "min": [
        0.9176470637321472,
        0.9176470637321472,
        0.9215686321258545,
        1.0
      ],
      "type": "VEC4"
    },
    {
      "bufferView": 1,
      "byteOffset": 3221488,
      "componentType": 5126,
      "count": 65532,
      "max": [
        4.648348808288574,
        1.0
      ],
      "min": [
        -0.022836975753307343,
        0.0
      ],
      "type": "VEC2"
    },
    {
      "bufferView": 0,
      "byteOffset": 4827660,
      "componentType": 5125,
      "count": 337143,
      "type": "SCALAR"
    },
    {
      "bufferView": 2,
      "byteOffset": 8587056,
      "componentType": 5126,
      "count": 25370,
      "max": [
        5.793216228485107,
        0.979679524898529,
        9.828914642333984
      ],
      "min": [
        -9.637659072875977,
        -0.7856365442276001,
        -11.692444801330566
      ],
      "type": "VEC3"
    },
    {
      "bufferView": 2,
      "byteOffset": 8891496,
      "componentType": 5126,
      "count": 25370,
      "max": [
        0.9999712705612183,
        0.9999502301216125,
        0.9999411702156067
      ],
      "min": [
        -0.9999712705612183,
        -0.9999502301216125,
        -0.9999411702156067
      ],
      "type": "VEC3"
    },
    {
      "bufferView": 3,
      "byteOffset": 5724704,
      "componentType": 5126,
      "count": 25370,
      "max": [
        0.9176470637321472,
        0.9176470637321472,
        0.9215686321258545,
        1.0
      ],
      "min": [
        0.9176470637321472,
        0.9176470637321472,
        0.9215686321258545,
        1.0
      ],
      "type": "VEC4"
    },
    {
      "bufferView": 1,
      "byteOffset": 3745744,
      "componentType": 5126,
      "count": 25370,
      "max": [
        4.828852653503418,
        1.0
      ],
      "min": [
        -0.012641222216188908,
        0.0
      ],
      "type": "VEC2"
    },
    {
      "bufferView": 0,
      "byteOffset": 6176232,
      "componentType": 5125,
      "count": 128814,
      "type": "SCALAR"
    },
    {
      "bufferView": 2,
      "byteOffset": 9195936,
      "componentType": 5126,
      "count": 51427,
      "max": [
        12.440839767456055,
        7.510735511779785,
        12.642111778259277
      ],
      "min": [
        -12.651741981506348,
        0.03313855454325676,
        -13.812954902648926
      ],
      "type": "VEC3"
    },
    {
      "bufferView": 2,
      "byteOffset": 9813060,
      "componentType": 5126,
      "count": 51427,
      "max": [
        0.9999817609786987,
        1.0,
        0.9999483227729797
      ],
      "min": [
        -0.9999817609786987,
        -1.0,
        -0.9999483227729797
      ],
      "type": "VEC3"
    },
    {
      "bufferView": 3,
      "byteOffset": 6130624,
      "componentType": 5126,
      "count": 51427,
      "max": [
        0.9725490212440491,
        0.21568627655506134,
        0.1764705926179886,
        1.0
      ],
      "min": [
        0.04313725605607033,
        0.04313725605607033,
        0.0117647061124444,
        1.0
      ],
      "type": "VEC4"
    },
    {
      "bufferView": 1,
      "byteOffset": 3948704,
      "componentType": 5126,
      "count": 51427,
      "max": [
        3.708242654800415,
        1.0
      ],
      "min": [
        -0.03003552183508873,
        0.0
      ],
      "type": "VEC2"
    },
    {
      "bufferView": 0,
      "byteOffset": 6691488,
      "componentType": 5125,
      "count": 253824,
      "type": "SCALAR"
    },
    {
      "bufferView": 2,
      "byteOffset": 10430184,
      "componentType": 5126,
      "count": 27048,
      "max": [
        14.344291687011719,
        7.751983642578125,
        19.87682342529297
      ],
      "min": [
        -18.60183334350586,
        -0.6179580688476563,
        -18.390840530395508
      ],
      "type": "VEC3"
    },
    {
      "bufferView": 2,
      "byteOffset": 10754760,
      "componentType": 5126,
      "count": 27048,
      "max": [
        0.9999405741691589,
        0.9999998807907104,
        0.9971809387207031
      ],
      "min": [
        -0.9999405741691589,
        -0.9999998807907104,
        -0.9971809387207031
      ],
      "type": "VEC3"
    },
    {
      "bufferView": 3,
      "byteOffset": 6953456,
      "componentType": 5126,
      "count": 27048,
      "max": [
        0.9882352948188782,
        0.9882352948188782,
        0.9882352948188782,
        1.0
      ],
      "min": [
        0.04313725605607033,
        0.08627451211214066,
        0.019607843831181526,
        1.0
      ],
      "type": "VEC4"
    },
    {
      "bufferView": 1,
      "byteOffset": 4360120,
      "componentType": 5126,
      "count": 27048,
      "max": [
        1.0,
        1.0
      ],
      "min": [
        0.0,
        0.0
      ],
      "type": "VEC2"
    },
    {
      "bufferView": 1,
      "byteOffset": 4576504,
      "componentType": 5126,
      "count": 27048,
      "max": [
        1.0,
        1.0
      ],
      "min": [
        0.0,
        0.0
      ],
      "type": "VEC2"
    },
    {
      "bufferView": 0,
      "byteOffset": 7706784,
      "componentType": 5125,
      "count": 40572,
      "type": "SCALAR"
    },
    {
      "bufferView": 2,
      "byteOffset": 11079336,
      "componentType": 5126,
      "count": 2678,
      "max": [
        14.421670913696289,
        4.7883758544921875,
        19.501001358032227
      ],
      "min": [
        -18.422758102416992,
        0.05188344046473503,
        -18.476083755493164
      ],
      "type": "VEC3"
    },
    {
      "bufferView": 2,
      "byteOffset": 11111472,
      "componentType": 5126,
      "count": 2678,
      "max": [
        0.9974144101142883,
        0.9951843023300171,
        0.9929652810096741
      ],
      "min": [
        -0.9988256096839905,
        -0.9895531535148621,
        -0.997974693775177
      ],
      "type": "VEC3"
    },
    {
      "bufferView": 3,
      "byteOffset": 7386224,
      "componentType": 5126,
      "count": 2678,
      "max": [
        0.9058823585510254,
        0.9058823585510254,
        0.9882352948188782,
        1.0
      ],
      "min": [
        0.9058823585510254,
        0.9058823585510254,
        0.9882352948188782,
        1.0
      ],
      "type": "VEC4"
    },
    {
      "bufferView": 1,
      "byteOffset": 4792888,
      "componentType": 5126,
      "count": 2678,
      "max": [
        1.0,
        1.0
      ],
      "min": [
        0.0,
        0.0
      ],
      "type": "VEC2"
    },
    {
      "bufferView": 1,
      "byteOffset": 4814312,
      "componentType": 5126,
      "count": 2678,
      "max": [
        1.0,
        1.0
      ],
      "min": [
        0.0,
        0.0
      ],
      "type": "VEC2"
    },
    {
      "bufferView": 0,
      "byteOffset": 7869072,
      "componentType": 5125,
      "count": 6354,
      "type": "SCALAR"
    },
    {
      "bufferView": 2,
      "byteOffset": 11143608,
      "componentType": 5126,
      "count": 6590,
      "max": [
        -5.689641952514648,
        1.769227385520935,
        -3.7876102924346924
      ],
      "min": [
        -6.2793402671813965,
        0.1444922238588333,
        -4.411052227020264
      ],
      "type": "VEC3"
    },
    {
      "bufferView": 2,
      "byteOffset": 11222688,
      "componentType": 5126,
      "count": 6590,
      "max": [
        0.9995868802070618,
        0.9835620522499084,
        0.9982315897941589
      ],
      "min": [
        -0.9951122403144836,
        -0.7196800708770752,
        -0.9988250732421875
      ],
      "type": "VEC3"
    },
    {
      "bufferView": 3,
      "byteOffset": 7429072,
      "componentType": 5126,
      "count": 6590,
      "max": [
        0.7803921699523926,
        0.7803921699523926,
        0.800000011920929,
        1.0
      ],
      "min": [
        0.7803921699523926,
        0.7803921699523926,
        0.800000011920929,
        1.0
      ],
      "type": "VEC4"
    },
    {
      "bufferView": 1,
      "byteOffset": 4835736,
      "componentType": 5126,
      "count": 6590,
      "max": [
        1.0,
        1.0
      ],
      "min": [
        0.0,
        0.0
      ],
      "type": "VEC2"
    },
    {
      "bufferView": 0,
      "byteOffset": 7894488,
      "componentType": 5125,
      "count": 17226,
      "type": "SCALAR"
    },
    {
      "bufferView": 2,
      "byteOffset": 11301768,
      "componentType": 5126,
      "count": 10500,
      "max": [
        -5.837714672088623,
        1.804429054260254,
        -3.9318225383758545
      ],
      "min": [
        -6.278366565704346,
        1.523414134979248,
        -4.35365629196167
      ],
      "type": "VEC3"
    },
    {
      "bufferView": 2,
      "byteOffset": 11427768,
      "componentType": 5126,
      "count": 10500,
      "max": [
        0.9997382164001465,
        0.9979485869407654,
        0.9996447563171387
      ],
      "min": [
        -0.9997382164001465,
        -0.9979485869407654,
        -0.9996447563171387
      ],
      "type": "VEC3"
    },
    {
      "bufferView": 3,
      "byteOffset": 7534512,
      "componentType": 5126,
      "count": 10500,
      "max": [
        0.40784314274787903,
        0.4117647111415863,
        0.40784314274787903,
        1.0
      ],
      "min": [
        0.007843137718737125,
        0.007843137718737125,
        0.007843137718737125,
        1.0
      ],
      "type": "VEC4"
    },
    {
      "bufferView": 1,
      "byteOffset": 4888456,
      "componentType": 5126,
      "count": 10500,
      "max": [
        1.0,
        1.0
      ],
      "min": [
        0.0,
        0.0
      ],
      "type": "VEC2"
    },
    {
      "bufferView": 1,
      "byteOffset": 4972456,
      "componentType": 5126,
      "count": 10500,
      "max": [
        1.0,
        1.0
      ],
      "min": [
        0.0,
        0.0
      ],
      "type": "VEC2"
    },
    {
      "bufferView": 0,
      "byteOffset": 7963392,
      "componentType": 5125,
      "count": 24216,
      "type": "SCALAR"
    },
    {
      "bufferView": 2,
      "byteOffset": 11553768,
      "componentType": 5126,
      "count": 110,
      "max": [
        -6.0020270347595215,
        1.6590938568115234,
        -4.066999435424805
      ],
      "min": [
        -6.061667442321777,
        1.6309928894042969,
        -4.165026664733887
      ],
      "type": "VEC3"
    },
    {
      "bufferView": 2,
      "byteOffset": 11555088,
      "componentType": 5126,
      "count": 110,
      "max": [
        0.9909715056419373,
        0.5098643898963928,
        0.8850334286689758
      ],
      "min": [
        -0.9813169240951538,
        -0.47052812576293945,
        -0.9600521326065063
      ],
      "type": "VEC3"
    },
    {
      "bufferView": 3,
      "byteOffset": 7702512,
      "componentType": 5126,
      "count": 110,
      "max": [
        0.062745101749897,
        0.8941176533699036,
        0.6901960968971252,
        1.0
      ],
      "min": [
        0.062745101749897,
        0.8941176533699036,
        0.6901960968971252,
        0.9960784316062927
      ],
      "type": "VEC4"
    },
    {
      "bufferView": 1,
      "byteOffset": 5056456,
      "componentType": 5126,
      "count": 110,
      "max": [
        1.0,
        1.0
      ],
      "min": [
        0.0,
        0.0
      ],
      "type": "VEC2"
    },
    {
      "bufferView": 1,
      "byteOffset": 5057336,
      "componentType": 5126,
      "count": 110,
      "max": [
        1.0,
        1.0
      ],
      "min": [
        0.0,
        0.0
      ],
      "type": "VEC2"
    },
    {
      "bufferView": 0,
      "byteOffset": 8060256,
      "componentType": 5125,
      "count": 252,
      "type": "SCALAR"
    },
    {
      "bufferView": 2,
      "byteOffset": 11556408,
      "componentType": 5126,
      "count": 2395,
      "max": [
        -6.02632474899292,
        1.6514196395874023,
        -4.058005332946777
      ],
      "min": [
        -6.170070171356201,
        1.387264609336853,
        -4.223180294036865
      ],
      "type": "VEC3"
    },
    {
      "bufferView": 2,
      "byteOffset": 11585148,
      "componentType": 5126,
      "count": 2395,
      "max": [
        0.997264564037323,
        1.0,
        0.9994124174118042
      ],
      "min": [
        -0.997264564037323,
        -1.0,
        -0.9994124174118042
      ],
      "type": "VEC3"
    },
    {
      "bufferView": 3,
      "byteOffset": 7704272,
      "componentType": 5126,
      "count": 2395,
      "max": [
        0.40784314274787903,
        0.4117647111415863,
        0.40784314274787903,
        1.0
      ],
      "min": [
        0.40784314274787903,
        0.4117647111415863,
        0.40784314274787903,
        1.0
      ],
      "type": "VEC4"
    },
    {
      "bufferView": 1,
      "byteOffset": 5058216,
      "componentType": 5126,
      "count": 2395,
      "max": [
        1.422956109046936,
        1.0
      ],
      "min": [
        -0.009632385335862637,
        0.0
      ],
      "type": "VEC2"
    },
    {
      "bufferView": 1,
      "byteOffset": 5077376,
      "componentType": 5126,
      "count": 2395,
      "max": [
        1.422956109046936,
        1.0
      ],
      "min": [
        -0.009632385335862637,
        0.0
      ],
      "type": "VEC2"
    },
    {
      "bufferView": 0,
      "byteOffset": 8061264,
      "componentType": 5125,
      "count": 10896,
      "type": "SCALAR"
    }
  ],
  "asset": {
    "extras": {
      "author": "Swarmrider (https://sketchfab.com/Swarmrider)",
      "license": "CC-BY-4.0 (http://creativecommons.org/licenses/by/4.0/)",
      "source": "https://sketchfab.com/3d-models/encounter-e42cbd5159c048e2814b6846b8080950",
      "title": "Encounter"
    },
    "generator": "Sketchfab-12.67.0",
    "version": "2.0"
  },
  "bufferViews": [
    {
      "buffer": 0,
      "byteLength": 8104848,
      "name": "floatBufferViews",
      "target": 34963
    },
    {
      "buffer": 0,
      "byteLength": 5096536,
      "byteOffset": 8104848,
      "byteStride": 8,
      "name": "floatBufferViews",
      "target": 34962
    },
    {
      "buffer": 0,
      "byteLength": 11613888,
      "byteOffset": 13201384,
      "byteStride": 12,
      "name": "floatBufferViews",
      "target": 34962
    },
    {
      "buffer": 0,
      "byteLength": 7742592,
      "byteOffset": 24815272,
      "byteStride": 16,
      "name": "floatBufferViews",
      "target": 34962
    }
  ],
  "buffers": [
    {
      "byteLength": 32557864,
      "uri": "scene.bin"
    }
  ],
  "images": [
    {
      "uri": "textures/Paper_baseColor.png"
    },
    {
      "uri": "textures/SoftHighlighter_baseColor.png"
    },
    {
      "uri": "textures/Highlighter_baseColor.png"
    },
    {
      "uri": "textures/Marker_baseColor.png"
    },
    {
      "uri": "textures/DuctTape_baseColor.png"
    },
    {
      "uri": "textures/Splatter_baseColor.png"
    },
    {
      "uri": "textures/TaperedMarker_baseColor.png"
    },
    {
      "uri": "textures/TaperedFlat_baseColor.png"
    },
    {
      "uri": "textures/Light_baseColor.png"
    },
    {
      "uri": "textures/LightWire_baseColor.png"
    }
  ],
  "materials": [
    {
      "alphaCutoff": 0.2,
      "alphaMode": "MASK",
      "doubleSided": true,
      "emissiveFactor": [
        1.0,
        1.0,
        1.0
      ],
      "name": "Paper",
      "pbrMetallicRoughness": {
        "baseColorTexture": {
          "index": 0
        },
        "metallicFactor": 0.0
      }
    },
    {
      "alphaMode": "BLEND",
      "doubleSided": true,
      "emissiveFactor": [
        1.0,
        1.0,
        1.0
      ],
      "name": "SoftHighlighter",
      "pbrMetallicRoughness": {
        "baseColorTexture": {
          "index": 1
        },
        "metallicFactor": 0.0
      }
    },
    {
      "alphaMode": "BLEND",
      "doubleSided": true,
      "emissiveFactor": [
        1.0,
        1.0,
        1.0
      ],
      "name": "Highlighter",
      "pbrMetallicRoughness": {
        "baseColorTexture": {
          "index": 2
        },
        "metallicFactor": 0.0
      }
    },
    {
      "alphaCutoff": 0.2,
      "alphaMode": "MASK",
      "doubleSided": true,
      "emissiveFactor": [
        1.0,
        1.0,
        1.0
      ],
      "name": "Marker",
      "pbrMetallicRoughness": {
        "baseColorTexture": {
          "index": 3
        },
        "metallicFactor": 0.0
      }
    },
    {
      "doubleSided": true,
      "emissiveFactor": [
        1.0,
        1.0,
        1.0
      ],
      "name": "Flat",
      "pbrMetallicRoughness": {
        "metallicFactor": 0.0
      }
    },
    {
      "doubleSided": true,
      "emissiveFactor": [
        1.0,
        1.0,
        1.0
      ],
      "name": "Disco",
      "pbrMetallicRoughness": {
        "metallicFactor": 0.0
      }
    },
    {
      "alphaCutoff": 0.2,
      "alphaMode": "MASK",
      "doubleSided": true,
      "emissiveFactor": [
        1.0,
        1.0,
        1.0
      ],
      "name": "DuctTape",
      "pbrMetallicRoughness": {
        "baseColorTexture": {
          "index": 4
        },
        "metallicFactor": 0.0
      }
    },
    {
      "doubleSided": true,
      "emissiveFactor": [
        1.0,
        1.0,
        1.0
      ],
      "name": "Toon",
      "pbrMetallicRoughness": {
        "metallicFactor": 0.0
      }
    },
    {
      "doubleSided": true,
      "emissiveFactor": [
        1.0,
        1.0,
        1.0
      ],
      "name": "Wire",
      "pbrMetallicRoughness": {
        "metallicFactor": 0.0
      }
    },
    {
      "alphaCutoff": 0.2,
      "alphaMode": "MASK",
      "doubleSided": true,
      "emissiveFactor": [
        1.0,
        1.0,
        1.0
      ],
      "name": "Splatter",
      "pbrMetallicRoughness": {
        "baseColorTexture": {
          "index": 5
        },
        "metallicFactor": 0.0
      }
    },
    {
      "alphaCutoff": 0.2,
      "alphaMode": "MASK",
      "doubleSided": true,
      "emissiveFactor": [
        1.0,
        1.0,
        1.0
      ],
      "name": "TaperedMarker",
      "pbrMetallicRoughness": {
        "baseColorTexture": {
          "index": 6
        },
        "metallicFactor": 0.0
      }
    },
    {
      "doubleSided": true,
      "emissiveFactor": [
        1.0,
        1.0,
        1.0
      ],
      "name": "DoubleTaperedFlat",
      "pbrMetallicRoughness": {
        "metallicFactor": 0.0
      }
    },
    {
      "alphaCutoff": 0.2,
      "alphaMode": "MASK",
      "doubleSided": true,
      "emissiveFactor": [
        1.0,
        1.0,
        1.0
      ],
      "name": "TaperedFlat",
      "pbrMetallicRoughness": {
        "baseColorTexture": {
          "index": 7
        },
        "metallicFactor": 0.0
      }
    },
    {
      "alphaMode": "BLEND",
      "doubleSided": true,
      "emissiveFactor": [
        1.0,
        1.0,
        1.0
      ],
      "name": "Light",
      "pbrMetallicRoughness": {
        "baseColorTexture": {
          "index": 8
        },
        "metallicFactor": 0.0
      }
    },
    {
      "alphaCutoff": 0.2,
      "alphaMode": "MASK",
      "doubleSided": true,
      "emissiveFactor": [
        1.0,
        1.0,
        1.0
      ],
      "name": "LightWire",
      "pbrMetallicRoughness": {
        "baseColorTexture": {
          "index": 9
        },
        "metallicFactor": 0.0
      }
    }
  ],
  "meshes": [
    {
      "name": "Paper_geo_Paper_0",
      "primitives": [
        {
          "attributes": {
            "COLOR_0": 2,
            "NORMAL": 1,
            "POSITION": 0,
            "TEXCOORD_0": 3,
            "TEXCOORD_1": 4
          },
          "indices": 5,
          "material": 0,
          "mode": 4
        }
      ]
    },
    {
      "name": "SoftHighlighter_geo_SoftHighlighter_0",
      "primitives": [
        {
          "attributes": {
            "COLOR_0": 8,
            "NORMAL": 7,
            "POSITION": 6,
            "TEXCOORD_0": 9,
            "TEXCOORD_1": 10
          },
          "indices": 11,
          "material": 1,
          "mode": 4
        }
      ]
    },
    {
      "name": "Highlighter_geo_Highlighter_0",
      "primitives": [
        {
          "attributes": {
            "COLOR_0": 14,
            "NORMAL": 13,
            "POSITION": 12,
            "TEXCOORD_0": 15,
            "TEXCOORD_1": 16
          },
          "indices": 17,
          "material": 2,
          "mode": 4
        }
      ]
    },
    {
      "name": "Marker_geo_Marker_0",
      "primitives": [
        {
          "attributes": {
            "COLOR_0": 20,
            "NORMAL": 19,
            "POSITION": 18,
            "TEXCOORD_0": 21,
            "TEXCOORD_1": 22
          },
          "indices": 23,
          "material": 3,
          "mode": 4
        }
      ]
    },
    {
      "name": "Flat_geo_Flat_0",
      "primitives": [
        {
          "attributes": {
            "COLOR_0": 26,
            "NORMAL": 25,
            "POSITION": 24,
            "TEXCOORD_0": 27
          },
          "indices": 28,
          "material": 4,
          "mode": 4
        }
      ]
    },
    {
      "name": "Disco_geo_Disco_0",
      "primitives": [
        {
          "attributes": {
            "COLOR_0": 31,
            "NORMAL": 30,
            "POSITION": 29,
            "TEXCOORD_0": 32
          },
          "indices": 33,
          "material": 5,
          "mode": 4
        }
      ]
    },
    {
      "name": "DuctTape_geo_DuctTape_0",
      "primitives": [
        {
          "attributes": {
            "COLOR_0": 36,
            "NORMAL": 35,
            "POSITION": 34,
            "TEXCOORD_0": 37,
            "TEXCOORD_1": 38
          },
          "indices": 39,
          "material": 6,
          "mode": 4
        }
      ]
    },
    {
      "name": "Toon_geo_Toon_0",
      "primitives": [
        {
          "attributes": {
            "COLOR_0": 42,
            "NORMAL": 41,
            "POSITION": 40,
            "TEXCOORD_0": 43
          },
          "indices": 44,
          "material": 7,
          "mode": 4
        }
      ]
    },
    {
      "name": "Toon_geo_Toon_0",
      "primitives": [
        {
          "attributes": {
            "COLOR_0": 47,
            "NORMAL": 46,
            "POSITION": 45,
            "TEXCOORD_0": 48
          },
          "indices": 49,
          "material": 7,
          "mode": 4
        }
      ]
    },
    {
      "name": "Toon_geo_Toon_0",
      "primitives": [
        {
          "attributes": {
            "COLOR_0": 52,
            "NORMAL": 51,
            "POSITION": 50,
            "TEXCOORD_0": 53
          },
          "indices": 54,
          "material": 7,
          "mode": 4
        }
      ]
    },
    {
      "name": "Toon_geo_Toon_0",
      "primitives": [
        {
          "attributes": {
            "COLOR_0": 57,
            "NORMAL": 56,
            "POSITION": 55,
            "TEXCOORD_0": 58
          },
          "indices": 59,
          "material": 7,
          "mode": 4
        }
      ]
    },
    {
      "name": "Wire_geo_Wire_0",
      "primitives": [
        {
          "attributes": {
            "COLOR_0": 62,
            "NORMAL": 61,
            "POSITION": 60,
            "TEXCOORD_0": 63
          },
          "indices": 64,
          "material": 8,
          "mode": 4
        }
      ]
    },
    {
      "name": "Splatter_geo_Splatter_0",
      "primitives": [
        {
          "attributes": {
            "COLOR_0": 67,
            "NORMAL": 66,
            "POSITION": 65,
            "TEXCOORD_0": 68,
            "TEXCOORD_1": 69
          },
          "indices": 70,
          "material": 9,
          "mode": 4
        }
      ]
    },
    {
      "name": "TaperedMarker_geo_TaperedMarker_0",
      "primitives": [
        {
          "attributes": {
            "COLOR_0": 73,
            "NORMAL": 72,
            "POSITION": 71,
            "TEXCOORD_0": 74,
            "TEXCOORD_1": 75
          },
          "indices": 76,
          "material": 10,
          "mode": 4
        }
      ]
    },
    {
      "name": "DoubleTaperedFlat_geo_DoubleTaperedFlat_0",
      "primitives": [
        {
          "attributes": {
            "COLOR_0": 79,
            "NORMAL": 78,
            "POSITION": 77,
            "TEXCOORD_0": 80
          },
          "indices": 81,
          "material": 11,
          "mode": 4
        }
      ]
    },
    {
      "name": "TaperedFlat_geo_TaperedFlat_0",
      "primitives": [
        {
          "attributes": {
            "COLOR_0": 84,
            "NORMAL": 83,
            "POSITION": 82,
            "TEXCOORD_0": 85,
            "TEXCOORD_1": 86
          },
          "indices": 87,
          "material": 12,
          "mode": 4
        }
      ]
    },
    {
      "name": "Light_geo_Light_0",
      "primitives": [
        {
          "attributes": {
            "COLOR_0": 90,
            "NORMAL": 89,
            "POSITION": 88,
            "TEXCOORD_0": 91,
            "TEXCOORD_1": 92
          },
          "indices": 93,
          "material": 13,
          "mode": 4
        }
      ]
    },
    {
      "name": "LightWire_geo_LightWire_0",
      "primitives": [
        {
          "attributes": {
            "COLOR_0": 96,
            "NORMAL": 95,
            "POSITION": 94,
            "TEXCOORD_0": 97,
            "TEXCOORD_1": 98
          },
          "indices": 99,
          "material": 14,
          "mode": 4
        }
      ]
    }
  ],
  "nodes": [
    {
      "children": [
        1
      ],
      "matrix": [
        1.0,
        0.0,
        0.0,
        0.0,
        0.0,
        2.220446049250313e-16,
        -1.0,
        0.0,
        0.0,
        1.0,
        2.220446049250313e-16,
        0.0,
        0.0,
        0.0,
        0.0,
        1.0
      ],
      "name": "Sketchfab_model"
    },
    {
      "children": [
        2
      ],
      "matrix": [
        1.0,
        0.0,
        0.0,
        0.0,
        0.0,
        0.0,
        1.0,
        0.0,
        0.0,
        -1.0,
        0.0,
        0.0,
        0.0,
        0.0,
        0.0,
        1.0
      ],
      "name": "Untitled_87.fbx"
    },
    {
      "children": [
        3,
        5,
        7,
        9,
        11,
        13,
        15,
        17,
        22,
        24,
        26,
        28,
        30,
        32,
        34
      ],
      "name": "RootNode"
    },
    {
      "children": [
        4
      ],
      "name": "Paper_geo"
    },
    {
      "mesh": 0,
      "name": "Paper_geo_Paper_0"
    },
    {
      "children": [
        6
      ],
      "name": "SoftHighlighter_geo"
    },
    {
      "mesh": 1,
      "name": "SoftHighlighter_geo_SoftHighlighter_0"
    },
    {
      "children": [
        8
      ],
      "name": "Highlighter_geo"
    },
    {
      "mesh": 2,
      "name": "Highlighter_geo_Highlighter_0"
    },
    {
      "children": [
        10
      ],
      "name": "Marker_geo"
    },
    {
      "mesh": 3,
      "name": "Marker_geo_Marker_0"
    },
    {
      "children": [
        12
      ],
      "name": "Flat_geo"
    },
    {
      "mesh": 4,
      "name": "Flat_geo_Flat_0"
    },
    {
      "children": [
        14
      ],
      "name": "Disco_geo"
    },
    {
      "mesh": 5,
      "name": "Disco_geo_Disco_0"
    },
    {
      "children": [
        16
      ],
      "name": "DuctTape_geo"
    },
    {
      "mesh": 6,
      "name": "DuctTape_geo_DuctTape_0"
    },
    {
      "children": [
        18,
        19,
        20,
        21
      ],
      "name": "Toon_geo"
    },
    {
      "mesh": 7,
      "name": "Toon_geo_Toon_0"
    },
    {
      "mesh": 8,
      "name": "Toon_geo_Toon_0"
    },
    {
      "mesh": 9,
      "name": "Toon_geo_Toon_0"
    },
    {
      "mesh": 10,
      "name": "Toon_geo_Toon_0"
    },
    {
      "children": [
        23
      ],
      "name": "Wire_geo"
    },
    {
      "mesh": 11,
      "name": "Wire_geo_Wire_0"
    },
    {
      "children": [
        25
      ],
      "name": "Splatter_geo"
    },
    {
      "mesh": 12,
      "name": "Splatter_geo_Splatter_0"
    },
    {
      "children": [
        27
      ],
      "name": "TaperedMarker_geo"
    },
    {
      "mesh": 13,
      "name": "TaperedMarker_geo_TaperedMarker_0"
    },
    {
      "children": [
        29
      ],
      "name": "DoubleTaperedFlat_geo"
    },
    {
      "mesh": 14,
      "name": "DoubleTaperedFlat_geo_DoubleTaperedFlat_0"
    },
    {
      "children": [
        31
      ],
      "name": "TaperedFlat_geo"
    },
    {
      "mesh": 15,
      "name": "TaperedFlat_geo_TaperedFlat_0"
    },
    {
      "children": [
        33
      ],
      "name": "Light_geo"
    },
    {
      "mesh": 16,
      "name": "Light_geo_Light_0"
    },
    {
      "children": [
        35
      ],
      "name": "LightWire_geo"
    },
    {
      "mesh": 17,
      "name": "LightWire_geo_LightWire_0"
    }
  ],
  "samplers": [
    {
      "magFilter": 9729,
      "minFilter": 9987,
      "wrapS": 10497,
      "wrapT": 10497
    }
  ],
  "scene": 0,
  "scenes": [
    {
      "name": "Sketchfab_Scene",
      "nodes": [
        0
      ]
    }
  ],
  "textures": [
    {
      "sampler": 0,
      "source": 0
    },
    {
      "sampler": 0,
      "source": 1
    },
    {
      "sampler": 0,
      "source": 2
    },
    {
      "sampler": 0,
      "source": 3
    },
    {
      "sampler": 0,
      "source": 4
    },
    {
      "sampler": 0,
      "source": 5
    },
    {
      "sampler": 0,
      "source": 6
    },
    {
      "sampler": 0,
      "source": 7
    },
    {
      "sampler": 0,
      "source": 8
    },
    {
      "sampler": 0,
      "source": 9
    }
  ]
}
